<svg width="310" height="297" viewBox="0 0 310 297" fill="none" xmlns="http://www.w3.org/2000/svg">
<path fill-rule="evenodd" clip-rule="evenodd" d="M187.737 2.37626C221.086 11.1706 226.977 53.7688 247.657 80.2383C268.167 106.492 302.965 125.025 308.282 156.67C313.818 189.626 298.8 223.168 275.717 247.261C253.872 270.062 219.159 274.702 187.296 282.95C156.409 290.945 125.715 301.062 93.7515 294.362C59.248 287.13 17.2288 275.324 3.71483 244.47C-10.074 212.989 26.6771 184.143 31.0078 151.113C34.3558 125.578 12.62 97.4366 25.892 75.3231C39.3614 52.8805 72.533 51.7771 97.3361 40.5979C127.854 26.843 154.138 -6.48414 187.737 2.37626Z" fill="#FFA318"/>
</svg>
