<svg width="47" height="41" viewBox="0 0 47 41" fill="none" xmlns="http://www.w3.org/2000/svg">
  <path d="M46.375 20.5V15.4166H41.2917V7.79163L33.6667 0.166626L28.5833 5.24996L23.5 0.166626L18.4167 5.24996L13.3333 0.166626L5.70833 7.79163V15.4166H0.625V20.5H5.70833V25.5833H0.625V30.6666H5.70833V40.8333H41.2917V30.6666H46.375V25.5833H41.2917V20.5H46.375ZM33.6667 7.35954L36.2083 9.90121V15.4166H31.125V9.90121L32.1671 8.85913L33.6667 7.35954ZM23.5 7.35954L24.9996 8.85913L26.0417 9.90121V15.4166H20.9583V9.90121L22.0004 8.85913L23.5 7.35954ZM20.9583 25.5833V20.5H26.0417V25.5833H20.9583ZM26.0417 30.6666V35.75H20.9583V30.6666H26.0417ZM10.7917 9.90121L13.3333 7.35954L14.8329 8.85913L15.875 9.90121V15.4166H10.7917V9.90121ZM10.7917 20.5H15.875V25.5833H10.7917V20.5ZM10.7917 30.6666H15.875V35.75H10.7917V30.6666ZM36.2083 35.75H31.125V30.6666H36.2083V35.75ZM36.2083 25.5833H31.125V20.5H36.2083V25.5833Z" fill="#FFA318"/>
  </svg>
  