<svg width="39" height="39" viewBox="0 0 39 39" fill="none" xmlns="http://www.w3.org/2000/svg">
  <path
    d="M38.2501 10.125V6.375H32.6251V0.75H28.8751V6.375H21.3751V0.75H17.6251V6.375H10.1251V0.75H6.37512V6.375H0.750122V10.125H6.37512V17.625H0.750122V21.375H6.37512V28.875H0.750122V32.625H6.37512V38.25H10.1251V32.625H17.6251V38.25H21.3751V32.625H28.8751V38.25H32.6251V32.625H38.2501V28.875H32.6251V21.375H38.2501V17.625H32.6251V10.125H38.2501ZM10.1251 10.125H17.6251V17.625H10.1251V10.125ZM10.1251 28.875V21.375H17.6251V28.875H10.1251ZM28.8751 28.875H21.3751V21.375H28.8751V28.875ZM28.8751 17.625H21.3751V10.125H28.8751V17.625Z"
    fill="#FFA318" />
</svg>