<svg width="47" height="41" viewBox="0 0 47 41" fill="none" xmlns="http://www.w3.org/2000/svg">
<path d="M17.8125 10.6875L35.625 28.5L32.2762 31.8487L29.6875 29.2838V40.375H20.1875V28.5H15.4375V40.375H5.9375V29.2838L3.34875 31.8725L0 28.5L17.8125 10.6875ZM46.3125 8.3125H43.4862L45.2675 6.53125L43.5812 4.845L40.1137 8.3125H38V6.19875L41.4438 2.755L39.7575 1.06875L38 2.82625V0H35.625V2.82625L33.8438 1.045L32.1575 2.73125L35.6012 6.175V8.3125H33.4875L30.0437 4.86875L28.3575 6.555L30.1387 8.33625H27.3125V10.7113H30.1387L28.3575 12.4925L30.0437 14.1788L33.4875 10.735H35.6012V12.8487L32.1575 16.2925L33.8438 17.9787L35.625 16.1975V19H38V16.1738L39.7812 17.955L41.4675 16.2688L38 12.8013V10.6875H40.1137L43.5575 14.1312L45.2437 12.445L43.4862 10.6875H46.3125V8.3125Z" fill="#FFA318"/>
</svg>
