<svg width="125" height="26" viewBox="0 0 125 26" fill="none" xmlns="http://www.w3.org/2000/svg">
<g clip-path="url(#clip0)">
<path d="M8.07124 10.3058C9.24246 9.9797 9.8296 8.43978 9.38265 6.86635C8.9357 5.29292 7.62392 4.28179 6.45271 4.60794C5.28149 4.93409 4.69435 6.47401 5.1413 8.04744C5.58825 9.62087 6.90003 10.632 8.07124 10.3058Z" fill="white"/>
<path d="M18.6824 3.30607C18.9524 1.68904 18.1956 0.218407 16.9919 0.0213243C15.7883 -0.175758 14.5936 0.975338 14.3235 2.59237C14.0534 4.2094 14.8102 5.68003 16.0139 5.87711C17.2176 6.0742 18.4123 4.9231 18.6824 3.30607Z" fill="white"/>
<path d="M11.616 5.87711C12.8196 5.68003 13.5765 4.2094 13.3064 2.59237C13.0363 0.975338 11.8416 -0.175758 10.6379 0.0213243C9.43426 0.218407 8.67744 1.68904 8.94752 3.30607C9.21759 4.9231 10.4123 6.07419 11.616 5.87711Z" fill="white"/>
<path d="M22.5985 7.87287C23.0506 6.29619 22.4657 4.75059 21.2921 4.42067C20.1184 4.09075 18.8005 5.10145 18.3484 6.67813C17.8963 8.25481 18.4812 9.80041 19.6548 10.1303C20.8285 10.4602 22.1464 9.44954 22.5985 7.87287Z" fill="white"/>
<path d="M18.0687 10.8153C17.3896 10.0205 16.8197 9.35292 16.131 8.56451C15.7729 8.14647 15.3106 7.72842 14.7648 7.54244C14.6808 7.51228 14.5943 7.48942 14.5063 7.47409C14.3047 7.44745 14.1012 7.43682 13.8978 7.4423C13.691 7.43574 13.484 7.44904 13.2798 7.48204C13.1923 7.49737 13.1063 7.52024 13.0229 7.55039C12.4755 7.73637 12.0227 8.15441 11.6551 8.57246C10.976 9.36723 10.4061 10.0332 9.71897 10.8232C8.69472 11.839 7.43769 12.9516 7.67208 14.5269C7.89844 15.3216 8.33351 15.6777 9.34652 16.4184C10.1171 16.9429 11.8895 17.8045 13.8272 17.8045H13.9685C15.9046 17.8045 17.7235 16.7093 18.3031 16.3946C19.3771 15.808 19.8892 15.3089 20.1156 14.5269C20.35 12.9516 19.0945 11.8278 18.0687 10.8153Z" fill="white"/>
<path d="M13.9189 26C11.7224 25.3848 9.62673 24.4597 7.69637 23.2533C2.36803 19.9153 0.793131 15.7348 0.340407 14.1421C-0.0962631 12.6193 -0.0914466 10.9329 0.269769 10.1301C0.367408 9.93613 0.499557 9.76114 0.659882 9.61354C0.953671 13.4284 3.4581 16.3706 6.76845 18.356L6.78932 18.3655C6.07973 17.0939 5.53228 15.9971 5.60132 14.5506C5.61416 14.2613 5.67035 13.9418 5.9224 13.9593C5.98654 14.6967 6.22464 15.4088 6.61754 16.0384C7.47322 17.4023 8.95501 18.232 10.4496 18.8328C11.3824 19.208 13.3827 19.6737 13.8997 20.5289C14.4166 19.6737 16.4169 19.208 17.3513 18.8344C18.8443 18.2352 20.3277 17.3959 21.1769 16.04C21.5701 15.4105 21.8082 14.6983 21.8721 13.9609C22.1306 13.945 22.1851 14.2629 22.1932 14.5522C22.2606 16.0066 21.7115 17.0955 21.0052 18.3671L21.0212 18.356C24.3332 16.3643 26.8408 13.4284 27.1314 9.604C27.2937 9.75241 27.427 9.92915 27.5247 10.1254C27.8859 10.9201 27.8908 12.613 27.4541 14.1374C26.9981 15.7269 25.4281 19.9074 20.0981 23.2486C18.1658 24.4541 16.0686 25.3786 13.8708 25.9937L13.9189 26Z" fill="white"/>
<path d="M35.6061 18.89C35.4721 18.8922 35.3391 18.8676 35.2149 18.8178C35.0907 18.768 34.9779 18.6939 34.8833 18.6C34.7886 18.5062 34.714 18.3944 34.6638 18.2713C34.6137 18.1483 34.5891 18.0165 34.5915 17.8839V4.78612C34.5864 4.6518 34.6098 4.51793 34.6601 4.39309C34.7105 4.26826 34.7866 4.15524 34.8837 4.06129C34.979 3.96902 35.0921 3.89658 35.2162 3.84826C35.3402 3.79994 35.4728 3.77671 35.6061 3.77994H40.2762C41.0852 3.76286 41.8864 3.93897 42.6121 4.29336C43.2611 4.61549 43.8086 5.10751 44.195 5.71599C44.5851 6.34325 44.7851 7.06816 44.7714 7.80464C44.7781 8.41418 44.5973 9.01131 44.2528 9.51657C43.8964 10.036 43.408 10.4532 42.8369 10.7262C43.642 10.9005 44.3686 11.3282 44.9078 11.9454C45.428 12.5515 45.6886 13.3463 45.6897 14.3297C45.7102 15.15 45.4946 15.9591 45.0683 16.6627C44.6419 17.3663 44.0222 17.9354 43.2816 18.3035C42.4772 18.7083 41.5845 18.9108 40.6824 18.8932L35.6061 18.89ZM36.6223 9.98866H40.2762C41.019 9.98866 41.628 9.80851 42.1032 9.44822C42.5784 9.08792 42.8165 8.53954 42.8176 7.80305C42.8176 7.06869 42.5795 6.52401 42.1032 6.16901C41.6269 5.81402 41.0179 5.63758 40.2762 5.6397H36.6223V9.98866ZM36.6223 17.0319H40.6872C41.2319 17.0404 41.7719 16.9319 42.2702 16.714C42.7102 16.5214 43.0836 16.2053 43.3442 15.8048C43.6178 15.3564 43.7539 14.8389 43.7359 14.3154C43.7552 13.8281 43.6181 13.3473 43.3442 12.942C43.0726 12.5719 42.7 12.2863 42.2702 12.1186C41.7661 11.9237 41.2283 11.8286 40.6872 11.8389H36.6223V17.0319Z" fill="white"/>
<path d="M53.5451 18.9679C52.5384 18.9876 51.5434 18.7512 50.6554 18.2812C49.834 17.841 49.1512 17.1848 48.6823 16.3849C48.1967 15.5396 47.9505 14.5803 47.9695 13.608C47.949 12.6348 48.1811 11.6726 48.6438 10.8136C49.0773 10.0234 49.7229 9.36721 50.5093 8.9173C51.3406 8.45074 52.2831 8.2136 53.2385 8.23062C54.1572 8.20542 55.0646 8.43677 55.8569 8.89822C56.5813 9.33781 57.1613 9.97613 57.5265 10.7357C57.9262 11.5805 58.124 12.5052 58.1044 13.4379C58.1076 13.5515 58.0865 13.6644 58.0425 13.7694C57.9985 13.8743 57.9327 13.9688 57.8492 14.0467C57.7638 14.1273 57.663 14.1902 57.5527 14.2316C57.4424 14.2731 57.3249 14.2924 57.207 14.2883H49.3437V12.7417H57.1588L56.3561 13.2837C56.3539 12.6851 56.2208 12.094 55.966 11.5512C55.7313 11.0389 55.3472 10.6078 54.8632 10.3132C54.3792 10.0187 53.8173 9.87408 53.2497 9.89804C52.5819 9.87657 51.9214 10.0418 51.3441 10.3749C50.8222 10.6918 50.4049 11.1525 50.1432 11.7006C49.8609 12.2969 49.7203 12.9495 49.7323 13.608C49.7189 14.2714 49.8852 14.9262 50.2139 15.5043C50.5357 16.0551 51.0015 16.5098 51.5624 16.8205C52.1669 17.1484 52.848 17.3129 53.5371 17.2973C53.96 17.2944 54.3793 17.2191 54.7764 17.0748C55.1423 16.9559 55.4881 16.7834 55.8023 16.563C55.9872 16.4235 56.212 16.3456 56.4444 16.3404C56.6617 16.33 56.8748 16.4022 57.04 16.5423C57.1392 16.6191 57.2215 16.715 57.282 16.8244C57.3424 16.9337 57.3797 17.054 57.3916 17.1781C57.3961 17.2961 57.3698 17.4132 57.3153 17.5182C57.2607 17.6231 57.1797 17.7124 57.0802 17.7774C56.5834 18.1538 56.0245 18.442 55.4282 18.6294C54.8233 18.8429 54.1872 18.9572 53.5451 18.9679Z" fill="white"/>
<path d="M64.5452 18.9679C63.6837 18.9767 62.8274 18.8357 62.0151 18.5514C61.3416 18.3359 60.7244 17.9761 60.2074 17.4976C60.1144 17.4066 60.044 17.2955 60.0017 17.1731C59.9593 17.0506 59.9462 16.9201 59.9634 16.7918C59.9775 16.6634 60.0187 16.5394 60.0843 16.4277C60.1498 16.316 60.2382 16.2191 60.3439 16.1433C60.4472 16.0491 60.5693 15.9773 60.7022 15.9324C60.8352 15.8876 60.9761 15.8706 61.1161 15.8826C61.3681 15.9134 61.6003 16.0337 61.7695 16.2212C62.0731 16.5205 62.436 16.7543 62.8354 16.9079C63.3507 17.1257 63.9064 17.234 64.4665 17.2258C65.2211 17.2258 65.799 17.1034 66.1956 16.8586C66.5921 16.6138 66.7976 16.2975 66.8104 15.9049C66.8233 15.5122 66.6386 15.1816 66.255 14.8987C65.8713 14.6158 65.1697 14.3821 64.1535 14.2088C62.8381 13.9503 61.884 13.5635 61.291 13.0485C61.0098 12.8177 60.784 12.5277 60.6302 12.1997C60.4763 11.8717 60.3983 11.5138 60.4016 11.1522C60.382 10.5519 60.5944 9.96692 60.9956 9.51653C61.4051 9.072 61.9231 8.7392 62.4999 8.55009C63.1154 8.33705 63.7631 8.22954 64.4152 8.23218C65.1966 8.21808 65.9733 8.35579 66.7013 8.63752C67.3154 8.87372 67.8594 9.25974 68.2826 9.75973C68.3656 9.84593 68.4304 9.94772 68.4732 10.0591C68.5159 10.1705 68.5357 10.2892 68.5314 10.4083C68.523 10.522 68.4888 10.6324 68.4313 10.7313C68.3737 10.8301 68.2943 10.9147 68.1991 10.9789C68.0911 11.0506 67.9694 11.0995 67.8416 11.1227C67.7137 11.146 67.5824 11.143 67.4558 11.114C67.1857 11.0707 66.9344 10.9496 66.7334 10.7659C66.4366 10.4755 66.0754 10.2577 65.6786 10.1301C65.2532 10.0074 64.8116 9.94844 64.3686 9.95524C63.8669 9.94144 63.3687 10.0421 62.9125 10.2493C62.516 10.4416 62.3169 10.7262 62.3169 11.0997C62.3133 11.3253 62.3782 11.5468 62.5031 11.7355C62.6924 11.9701 62.9469 12.1447 63.2352 12.2378C63.756 12.4304 64.2933 12.5762 64.8406 12.6733C65.6438 12.8101 66.4236 13.0578 67.1572 13.4093C67.6495 13.6408 68.0706 13.998 68.3773 14.4441C68.6295 14.8545 68.7581 15.3276 68.7481 15.8079C68.7542 16.3788 68.5864 16.9383 68.2665 17.4133C67.9152 17.9169 67.4279 18.3124 66.8602 18.5546C66.2426 18.8312 65.471 18.969 64.5452 18.9679Z" fill="white"/>
<path d="M70.8172 10.3591C70.5715 10.3716 70.3306 10.2883 70.1462 10.127C70.064 10.0539 69.9988 9.96402 69.955 9.8636C69.9112 9.76318 69.8899 9.65457 69.8925 9.54522C69.887 9.43011 69.9068 9.31519 69.9506 9.20842C69.9944 9.10165 70.0611 9.00559 70.1462 8.92689C70.329 8.76719 70.5672 8.68399 70.8108 8.69482H75.3236C75.5671 8.68432 75.8052 8.76748 75.9882 8.92689C76.0741 9.00515 76.1417 9.10102 76.1864 9.20781C76.231 9.3146 76.2516 9.42975 76.2467 9.54522C76.2489 9.65451 76.2273 9.76299 76.1836 9.86335C76.1398 9.9637 76.0749 10.0536 75.993 10.127C75.81 10.2864 75.5719 10.3696 75.3284 10.3591H70.8172ZM75.1518 18.8901C74.5273 18.8994 73.9136 18.7282 73.3859 18.3973C72.8624 18.065 72.4374 17.6009 72.1545 17.0526C71.8499 16.4598 71.6961 15.8022 71.7066 15.1372V5.90837C71.7013 5.77805 71.7226 5.64801 71.7693 5.52605C71.816 5.40409 71.8871 5.29273 71.9783 5.19866C72.0695 5.10459 72.179 5.02974 72.3002 4.97861C72.4214 4.92748 72.5518 4.90112 72.6835 4.90112C72.8152 4.90112 72.9456 4.92748 73.0668 4.97861C73.188 5.02974 73.2974 5.10459 73.3887 5.19866C73.4799 5.29273 73.551 5.40409 73.5977 5.52605C73.6444 5.64801 73.6657 5.77805 73.6604 5.90837V15.1372C73.6444 15.6056 73.7962 16.0645 74.089 16.4327C74.2115 16.5955 74.3709 16.7277 74.5544 16.8185C74.7378 16.9094 74.9403 16.9563 75.1454 16.9556H75.81C75.9232 16.9547 76.0353 16.9784 76.1382 17.0251C76.2411 17.0718 76.3324 17.1403 76.4056 17.2258C76.5728 17.4197 76.6599 17.6689 76.6496 17.9236C76.6531 18.0562 76.6259 18.1878 76.5703 18.3085C76.5147 18.4291 76.432 18.5356 76.3286 18.6199C76.0941 18.8064 75.7991 18.9025 75.4986 18.8901H75.1518Z" fill="white"/>
<path d="M86.1361 19.0839C85.1356 19.0919 84.144 18.8978 83.2218 18.5135C82.2996 18.1293 81.4662 17.5629 80.7725 16.849C80.0809 16.1374 79.5357 15.2996 79.1671 14.3821C78.7763 13.4099 78.5805 12.3717 78.5907 11.3254C78.5825 10.2911 78.7783 9.26525 79.1671 8.30526C79.5378 7.39209 80.0829 6.55826 80.7725 5.84944C81.4526 5.1453 82.2659 4.58038 83.1661 4.18678C84.1025 3.78239 85.1146 3.57819 86.1361 3.58753C87.0148 3.56839 87.8902 3.69905 88.724 3.97379C89.518 4.27179 90.2548 4.70185 90.9026 5.24541C90.9968 5.31323 91.0797 5.39529 91.1482 5.48861C91.2031 5.56414 91.2429 5.64939 91.2654 5.73976C91.2861 5.83801 91.2958 5.93823 91.2943 6.03859C91.2974 6.15311 91.2755 6.26694 91.2301 6.3723C91.1846 6.47765 91.1167 6.57203 91.031 6.64897C90.8479 6.8185 90.6081 6.91517 90.3575 6.92045C90.1068 6.92573 89.8631 6.83925 89.6728 6.67758C89.2265 6.28623 88.7225 5.96462 88.1782 5.72386C87.6623 5.50451 86.9816 5.39483 86.1361 5.39483C85.3875 5.39007 84.647 5.54853 83.9672 5.85897C83.2935 6.16418 82.6861 6.59605 82.1788 7.1306C81.6606 7.67794 81.253 8.31838 80.9779 9.01738C80.403 10.5012 80.403 12.1432 80.9779 13.627C81.2537 14.3304 81.6642 14.9743 82.1868 15.5233C82.692 16.0603 83.2999 16.4925 83.9753 16.795C85.2589 17.3579 86.7145 17.3996 88.0289 16.911C88.6367 16.6751 89.2097 16.3591 89.7322 15.9716C89.9284 15.8164 90.175 15.7372 90.4258 15.7491C90.6457 15.7642 90.8516 15.8614 91.0021 16.0209C91.0838 16.1113 91.1466 16.2168 91.1869 16.3314C91.2271 16.446 91.244 16.5674 91.2365 16.6885C91.2364 16.8179 91.2102 16.9459 91.1595 17.0652C91.1034 17.1916 91.0239 17.3064 90.9251 17.4038C90.2481 17.9436 89.4853 18.3685 88.6679 18.6611C87.8551 18.9462 86.9984 19.0893 86.1361 19.0839Z" fill="white"/>
<path d="M97.9569 18.9678C97.0531 18.9809 96.1647 18.7359 95.3979 18.2621C94.6426 17.7931 94.0257 17.1352 93.6094 16.3546C93.1633 15.5103 92.9381 14.5686 92.9544 13.6159C92.9395 12.6534 93.1863 11.7047 93.6688 10.8692C94.1306 10.0695 94.7981 9.40536 95.6034 8.94423C96.2159 8.58536 96.8941 8.35021 97.599 8.25236C98.3038 8.15451 99.0212 8.1959 99.7098 8.37414C100.398 8.55238 101.045 8.86394 101.611 9.29082C102.177 9.7177 102.652 10.2514 103.009 10.8612C103.49 11.6972 103.736 12.6457 103.722 13.6079H102.959C102.976 14.5607 102.75 15.5023 102.304 16.3467C101.889 17.1271 101.272 17.7851 100.517 18.2541C99.751 18.7308 98.862 18.9785 97.9569 18.9678ZM98.3486 17.2193C98.9745 17.2291 99.5905 17.0638 100.126 16.7425C100.646 16.4281 101.072 15.9806 101.357 15.447C101.653 14.8716 101.807 14.2352 101.807 13.5896C101.807 12.9441 101.653 12.3077 101.357 11.7323C101.071 11.1985 100.646 10.7506 100.126 10.4352C99.5871 10.1256 98.9754 9.96256 98.3526 9.96256C97.7298 9.96256 97.1181 10.1256 96.5794 10.4352C96.0538 10.7502 95.6222 11.1978 95.3288 11.7323C95.0272 12.3058 94.8697 12.943 94.8697 13.5896C94.8697 14.2363 95.0272 14.8734 95.3288 15.447C95.6219 15.9813 96.0536 16.4285 96.5794 16.7425C97.1122 17.0635 97.7249 17.2309 98.3486 17.2257V17.2193ZM102.725 18.9027C102.593 18.9073 102.461 18.885 102.338 18.8372C102.215 18.7893 102.104 18.7169 102.01 18.6245C101.917 18.532 101.843 18.4215 101.795 18.2998C101.746 18.1782 101.723 18.0479 101.728 17.9171V14.9622L102.1 12.9117L103.722 13.6079V17.9235C103.726 18.0543 103.704 18.1845 103.655 18.3062C103.607 18.4279 103.533 18.5384 103.44 18.6308C103.346 18.7233 103.235 18.7957 103.112 18.8435C102.989 18.8914 102.857 18.9137 102.725 18.909V18.9027Z" fill="white"/>
<path d="M107.668 18.89C107.538 18.8988 107.407 18.882 107.283 18.8406C107.159 18.7991 107.044 18.7338 106.946 18.6484C106.855 18.5516 106.786 18.4371 106.742 18.3124C106.698 18.1876 106.681 18.0552 106.692 17.9236V9.27495C106.678 9.14447 106.693 9.01245 106.737 8.8886C106.781 8.76475 106.852 8.65224 106.946 8.55935C107.039 8.46646 107.153 8.39556 107.278 8.35187C107.403 8.30818 107.536 8.29282 107.668 8.30692C107.801 8.28838 107.936 8.30064 108.063 8.34273C108.191 8.38482 108.306 8.45559 108.401 8.54946C108.496 8.64333 108.567 8.75773 108.61 8.88363C108.652 9.00954 108.665 9.1435 108.646 9.27495V17.9236C108.663 18.1845 108.575 18.4415 108.402 18.6389C108.303 18.7281 108.187 18.7965 108.061 18.8396C107.935 18.8828 107.801 18.9 107.668 18.89ZM107.649 12.2744C107.638 11.5408 107.838 10.8192 108.225 10.1937C108.608 9.58292 109.143 9.07989 109.779 8.73292C110.436 8.37028 111.177 8.18346 111.929 8.19089C112.709 8.19089 113.292 8.31699 113.677 8.5692C114.062 8.8214 114.209 9.12129 114.117 9.46887C114.09 9.62772 114.011 9.7734 113.892 9.88374C113.785 9.97945 113.652 10.0433 113.51 10.0681C113.354 10.0931 113.195 10.0866 113.041 10.0491C112.303 9.88208 111.538 9.86908 110.794 10.0109C110.201 10.1153 109.654 10.392 109.221 10.8057C109.029 10.9994 108.879 11.2296 108.78 11.4823C108.681 11.735 108.635 12.005 108.644 12.276L107.649 12.2744Z" fill="white"/>
<path d="M120.428 18.968C119.421 18.9881 118.426 18.7516 117.538 18.2813C116.722 17.8387 116.045 17.1827 115.58 16.385C115.094 15.5397 114.848 14.5803 114.867 13.608C114.846 12.6348 115.078 11.6726 115.541 10.8136C115.975 10.0234 116.621 9.36715 117.408 8.91733C118.239 8.45034 119.182 8.21317 120.137 8.23066C121.056 8.20519 121.964 8.43657 122.756 8.89826C123.481 9.33732 124.062 9.97575 124.427 10.7358C124.825 11.581 125.023 12.5054 125.003 13.438C125.006 13.5514 124.985 13.6641 124.942 13.769C124.898 13.8739 124.833 13.9685 124.75 14.0468C124.664 14.127 124.563 14.1897 124.453 14.2312C124.343 14.2726 124.225 14.2921 124.107 14.2884H116.222V12.7418H124.038L123.236 13.2838C123.232 12.6851 123.099 12.0942 122.844 11.5512C122.609 11.0389 122.225 10.6078 121.741 10.3133C121.257 10.0187 120.695 9.87412 120.128 9.89808C119.46 9.87656 118.8 10.0418 118.224 10.3749C117.701 10.6918 117.283 11.1524 117.021 11.7006C116.74 12.2974 116.6 12.9497 116.612 13.608C116.598 14.2715 116.764 14.9265 117.093 15.5044C117.415 16.0551 117.881 16.5098 118.442 16.8205C119.046 17.1482 119.726 17.3127 120.415 17.2974C120.839 17.2942 121.258 17.2189 121.656 17.0748C122.022 16.9552 122.367 16.7827 122.682 16.563C122.864 16.4248 123.086 16.347 123.316 16.3405C123.534 16.3304 123.747 16.4026 123.913 16.5423C124.012 16.6191 124.095 16.7151 124.155 16.8244C124.216 16.9337 124.253 17.0541 124.265 17.1781C124.269 17.2963 124.243 17.4136 124.188 17.5186C124.133 17.6236 124.052 17.7127 123.952 17.7774C123.462 18.1547 122.911 18.4462 122.322 18.6389C121.713 18.8502 121.073 18.9614 120.428 18.968Z" fill="white"/>
</g>
<defs>
<clipPath id="clip0">
<rect width="125" height="26" fill="white"/>
</clipPath>
</defs>
</svg>
