<svg width="189" height="40" viewBox="0 0 189 40" fill="none" xmlns="http://www.w3.org/2000/svg">
<g clip-path="url(#clip0)">
<path d="M12.1478 15.8521C13.9187 15.3503 14.8065 12.9812 14.1307 10.5606C13.4549 8.13991 11.4715 6.58433 9.7006 7.0861C7.92972 7.58787 7.04197 9.95697 7.71775 12.3776C8.39354 14.7983 10.3769 16.3539 12.1478 15.8521Z" fill="#FFA318" fill-opacity="0.74"/>
<path d="M28.2499 5.08598C28.6583 2.59824 27.514 0.33573 25.694 0.0325261C23.8741 -0.270678 22.0677 1.50024 21.6593 3.98798C21.251 6.47572 22.3953 8.73823 24.2152 9.04143C26.0352 9.34464 27.8416 7.57372 28.2499 5.08598Z" fill="#FFA318" fill-opacity="0.74"/>
<path d="M17.5597 9.04523C19.3797 8.74203 20.524 6.47952 20.1157 3.99178C19.7073 1.50404 17.9009 -0.266877 16.081 0.0363274C14.261 0.339531 13.1167 2.60204 13.525 5.08978C13.9334 7.57752 15.7398 9.34844 17.5597 9.04523Z" fill="#FFA318" fill-opacity="0.74"/>
<path d="M34.1688 12.114C34.8524 9.68832 33.968 7.31047 32.1935 6.8029C30.4189 6.29534 28.4262 7.85027 27.7426 10.2759C27.059 12.7016 27.9434 15.0794 29.718 15.587C31.4925 16.0946 33.4852 14.5396 34.1688 12.114Z" fill="#FFA318" fill-opacity="0.74"/>
<path d="M27.3199 16.6486C26.2907 15.4259 25.429 14.3988 24.3901 13.1859C23.8464 12.5427 23.1497 11.8996 22.3244 11.6159C22.1975 11.5687 22.0667 11.5327 21.9336 11.5083C21.6279 11.4673 21.3195 11.451 21.0112 11.4594C20.6993 11.4494 20.3871 11.4698 20.0791 11.5205C19.9468 11.5441 19.8169 11.5793 19.6907 11.6257C18.863 11.9118 18.1784 12.5549 17.6226 13.1981C16.5958 14.4208 15.7341 15.4454 14.6927 16.6608C13.1465 18.2186 11.2459 19.945 11.6003 22.3587C11.9425 23.5814 12.5979 24.1316 14.132 25.2688C15.2972 26.0758 17.977 27.4012 20.9068 27.4012H21.1131C24.043 27.4012 26.7932 25.7163 27.6549 25.2321C29.2812 24.3297 30.0556 23.5618 30.3978 22.3587C30.7692 19.923 28.8662 18.1966 27.3199 16.6486Z" fill="#FFA318" fill-opacity="0.74"/>
<path d="M21.0455 40C17.7219 39.0541 14.5507 37.631 11.6298 35.7743C3.57089 30.6389 1.19207 24.2074 0.507551 21.7595C-0.152694 19.4144 -0.145412 16.8198 0.400746 15.5873C0.54857 15.2855 0.750149 15.0136 0.995453 14.7852C1.43481 20.6542 5.22879 25.1856 10.234 28.2497L10.2656 28.2668C9.19026 26.3105 8.36495 24.6231 8.4669 22.3978C8.48875 21.9527 8.57371 21.4612 8.95238 21.4881C9.04992 22.6227 9.41078 23.7184 10.0059 24.6867C11.2899 26.7727 13.5304 28.0614 15.7903 28.9858C17.2006 29.5605 20.2251 30.277 21.0067 31.5926C21.7883 30.277 24.8128 29.5629 26.2231 28.9858C28.483 28.0639 30.7235 26.7849 32.0076 24.6867C32.6026 23.7184 32.9635 22.6227 33.061 21.4881C33.4494 21.4636 33.5465 21.9527 33.5465 22.3978C33.6485 24.6354 32.8183 26.3105 31.7478 28.2791L31.7794 28.262C36.7846 25.1978 40.5762 20.6811 41.018 14.7974C41.2626 15.0264 41.4641 15.2982 41.6127 15.5995C42.1588 16.8222 42.1661 19.4266 41.5059 21.7718C40.8165 24.2172 38.4425 30.6487 30.3836 35.789C27.4625 37.6447 24.2914 39.067 20.9679 40.0123L21.0455 40Z" fill="#FFA318" fill-opacity="0.74"/>
<path d="M53.8368 29.0616C53.6341 29.065 53.4328 29.0272 53.2449 28.9506C53.057 28.8739 52.8863 28.76 52.743 28.6156C52.5996 28.4712 52.4866 28.2993 52.4105 28.11C52.3345 27.9207 52.297 27.7179 52.3003 27.5137V7.35596C52.2929 7.14914 52.3286 6.94307 52.4051 6.75101C52.4817 6.55895 52.5972 6.38516 52.7445 6.24084C52.8887 6.09909 53.0597 5.98796 53.2473 5.91402C53.4349 5.84009 53.6354 5.80487 53.8368 5.81044H60.898C62.121 5.78341 63.3324 6.0535 64.4298 6.59787C65.4105 7.09351 66.2374 7.8505 66.8208 8.78654C67.4121 9.75174 67.7147 10.8683 67.6922 12.0023C67.7033 12.9398 67.4307 13.8585 66.9106 14.636C66.3714 15.4357 65.632 16.0777 64.7672 16.497C65.9856 16.7645 67.0851 17.4226 67.901 18.3726C68.6875 19.3052 69.0807 20.5279 69.0807 22.0408C69.1128 23.303 68.7875 24.5483 68.1427 25.631C67.4978 26.7137 66.5603 27.589 65.4396 28.1544C64.2244 28.7774 62.8754 29.0891 61.5121 29.0616H53.8368ZM55.3733 15.3672H60.898C62.0211 15.3672 62.9419 15.0901 63.6604 14.5358C64.3789 13.9815 64.7381 13.137 64.7381 12.0023C64.7381 10.8725 64.3789 10.0345 63.6604 9.48838C62.9419 8.94223 62.0211 8.66916 60.898 8.66916H55.3733V15.3672ZM55.3733 26.2029H61.5194C62.3421 26.2161 63.1579 26.0492 63.9104 25.7138C64.5764 25.4176 65.1418 24.9313 65.5367 24.3151C65.9496 23.625 66.1545 22.8289 66.1266 22.0237C66.1527 21.279 65.9455 20.5449 65.5343 19.9255C65.1227 19.3561 64.5586 18.9167 63.908 18.6588C63.1467 18.3588 62.3343 18.2126 61.517 18.2284H55.3733V26.2029Z" fill="#282623"/>
<path d="M80.9581 29.1815C79.4359 29.2123 77.9314 28.8485 76.5889 28.1251C75.3514 27.4459 74.3234 26.4366 73.6178 25.2077C72.8819 23.9087 72.5086 22.4333 72.5376 20.9379C72.5062 19.4398 72.8572 17.9587 73.5571 16.6364C74.2127 15.4188 75.1897 14.4075 76.3801 13.7141C77.637 12.9964 79.0621 12.6315 80.5066 12.6577C81.8971 12.6202 83.27 12.9778 84.4681 13.6897C85.5635 14.366 86.4404 15.348 86.9926 16.5166C87.595 17.8169 87.8931 19.2392 87.864 20.6738C87.8687 20.8483 87.837 21.0218 87.7709 21.1831C87.7048 21.3445 87.6059 21.4901 87.4805 21.6104C87.3513 21.7345 87.1989 21.8314 87.0323 21.8957C86.8656 21.9599 86.6879 21.9901 86.5095 21.9846H74.6154V19.6027H86.4318L85.2182 20.4366C85.2152 19.5153 85.0131 18.6057 84.6259 17.7711C84.2711 16.9834 83.6908 16.3205 82.9595 15.8673C82.2281 15.4142 81.379 15.1915 80.5212 15.2279C79.5114 15.1948 78.5128 15.4491 77.6399 15.9615C76.8502 16.4483 76.219 17.1573 75.8242 18.001C75.3974 18.9185 75.1848 19.9224 75.2028 20.9355C75.1814 21.9554 75.4329 22.9623 75.931 23.8505C76.4176 24.6978 77.122 25.3973 77.97 25.8753C78.8833 26.3795 79.9122 26.6325 80.9533 26.6089C81.5936 26.6044 82.2284 26.4886 82.8296 26.2666C83.3828 26.0836 83.9057 25.8182 84.3807 25.4791C84.661 25.2658 85.0005 25.1461 85.3517 25.1368C85.6806 25.1209 86.003 25.233 86.2522 25.4498C86.4026 25.5675 86.5273 25.715 86.6188 25.8833C86.7102 26.0516 86.7664 26.2369 86.7838 26.428C86.7903 26.61 86.7502 26.7907 86.6673 26.9526C86.5844 27.1145 86.4615 27.2521 86.3105 27.3523C85.5598 27.9301 84.7156 28.3727 83.8151 28.6606C82.8973 28.9899 81.9323 29.1659 80.9581 29.1815Z" fill="#282623"/>
<path d="M97.5903 29.1814C96.2877 29.1947 94.9929 28.9779 93.7647 28.5407C92.7434 28.2096 91.8069 27.6561 91.0218 26.9194C90.8821 26.7788 90.7763 26.6078 90.7123 26.4196C90.6484 26.2314 90.628 26.031 90.6528 25.8336C90.6753 25.6361 90.7382 25.4454 90.8377 25.2736C90.9371 25.1019 91.0709 24.9528 91.2305 24.8359C91.3865 24.6912 91.5706 24.5809 91.7712 24.5118C91.9718 24.4428 92.1845 24.4166 92.3957 24.4349C92.7774 24.4823 93.1292 24.6673 93.3861 24.9557C93.8451 25.4162 94.3939 25.7759 94.9978 26.0122C95.7768 26.3475 96.617 26.5141 97.464 26.5012C98.6049 26.5012 99.4763 26.3121 100.078 25.9339C100.68 25.5557 100.99 25.0666 101.008 24.4666C101.027 23.87 100.748 23.3564 100.166 22.9187C99.5831 22.4809 98.5272 22.1264 96.9907 21.8476C95.0003 21.4514 93.5576 20.8564 92.6627 20.0624C92.2374 19.7074 91.8961 19.2613 91.6635 18.7566C91.4309 18.252 91.3128 17.7014 91.3179 17.145C91.2859 16.2234 91.6026 15.3239 92.2039 14.6287C92.825 13.946 93.6087 13.4343 94.4808 13.1418C95.4106 12.8141 96.3892 12.6487 97.3742 12.6527C98.5561 12.6302 99.7307 12.843 100.831 13.2788C101.761 13.6397 102.584 14.233 103.224 15.0028C103.351 15.1347 103.451 15.2911 103.516 15.4625C103.582 15.6339 103.613 15.8168 103.608 16.0005C103.596 16.1758 103.545 16.3461 103.458 16.4983C103.371 16.6505 103.25 16.7805 103.105 16.8785C102.942 16.9886 102.759 17.0639 102.566 17.0997C102.373 17.1354 102.175 17.1309 101.984 17.0863C101.575 17.0208 101.195 16.8344 100.891 16.5508C100.442 16.1033 99.8953 15.7683 99.2943 15.5726C98.6519 15.3836 97.9851 15.2929 97.316 15.3036C96.5577 15.2808 95.8045 15.4339 95.1143 15.7511C94.5148 16.047 94.2138 16.4847 94.2138 17.0594C94.207 17.4067 94.3052 17.7479 94.4954 18.0376C94.7816 18.3985 95.1663 18.6671 95.6022 18.8103C96.3898 19.1066 97.2022 19.3309 98.0296 19.4804C99.2433 19.6908 100.422 20.0719 101.53 20.6126C102.275 20.9688 102.912 21.5183 103.377 22.2046C103.758 22.836 103.953 23.5639 103.938 24.3028C103.947 25.1811 103.693 26.0418 103.21 26.7727C102.678 27.5474 101.942 28.1559 101.083 28.5285C100.156 28.9638 98.9909 29.1814 97.5903 29.1814Z" fill="#282623"/>
<path d="M107.074 15.937C106.706 15.9533 106.347 15.8253 106.071 15.58C105.947 15.4681 105.848 15.3303 105.781 15.1763C105.715 15.0222 105.682 14.8554 105.685 14.6874C105.677 14.5097 105.707 14.3323 105.774 14.1676C105.841 14.0029 105.942 13.8548 106.071 13.7337C106.347 13.4883 106.706 13.3603 107.074 13.3766H113.9C114.268 13.361 114.628 13.4888 114.905 13.7337C115.035 13.8555 115.137 14.0043 115.204 14.1698C115.272 14.3352 115.303 14.5135 115.295 14.6923C115.299 14.8601 115.266 15.0266 115.2 15.1806C115.134 15.3347 115.036 15.4725 114.912 15.5848C114.635 15.8296 114.275 15.9575 113.907 15.9419L107.074 15.937ZM113.628 29.0616C112.688 29.0747 111.764 28.8113 110.97 28.3036C110.178 27.7929 109.535 27.0788 109.108 26.2347C108.649 25.3265 108.415 24.3194 108.428 23.3002V9.08977C108.42 8.88928 108.453 8.68921 108.523 8.50159C108.594 8.31396 108.701 8.14264 108.839 7.99791C108.977 7.85318 109.143 7.73803 109.326 7.65937C109.509 7.58071 109.706 7.54016 109.905 7.54016C110.105 7.54016 110.302 7.58071 110.485 7.65937C110.668 7.73803 110.834 7.85318 110.972 7.99791C111.11 8.14264 111.217 8.31396 111.288 8.50159C111.358 8.68921 111.391 8.88928 111.383 9.08977V23.288C111.359 24.0095 111.59 24.7162 112.033 25.2834C112.219 25.533 112.459 25.7354 112.736 25.8747C113.013 26.0139 113.318 26.0861 113.628 26.0855H114.633C114.805 26.083 114.976 26.1192 115.132 26.1915C115.289 26.2639 115.428 26.3705 115.538 26.5037C115.793 26.8 115.926 27.1832 115.91 27.5748C115.915 27.7788 115.874 27.9813 115.79 28.1668C115.705 28.3524 115.58 28.5163 115.424 28.6459C115.069 28.9339 114.622 29.0817 114.167 29.0616H113.628Z" fill="#282623"/>
<path d="M130.236 29.3649C128.723 29.3764 127.224 29.0775 125.83 28.4864C124.435 27.8953 123.175 27.0243 122.126 25.9266C121.081 24.8313 120.257 23.5424 119.699 22.1313C119.109 20.6353 118.813 19.0383 118.827 17.4287C118.815 15.8376 119.111 14.2595 119.699 12.7824C120.259 11.3769 121.084 10.0934 122.126 9.00174C123.156 7.92361 124.386 7.05882 125.745 6.45604C127.161 5.83418 128.691 5.52004 130.236 5.53411C131.565 5.50448 132.89 5.70549 134.151 6.12835C135.352 6.5866 136.466 7.24825 137.445 8.0847C137.588 8.18686 137.713 8.31252 137.814 8.4564C137.898 8.57229 137.958 8.70356 137.991 8.84278C138.025 8.99445 138.04 9.14961 138.037 9.30497C138.041 9.48093 138.008 9.6557 137.939 9.81735C137.87 9.97899 137.767 10.1237 137.637 10.2416C137.36 10.5029 136.998 10.6519 136.618 10.6601C136.239 10.6682 135.871 10.5348 135.583 10.2856C134.909 9.68246 134.147 9.18756 133.323 8.81833C132.547 8.48086 131.517 8.31212 130.236 8.31212C129.1 8.30545 127.977 8.55093 126.947 9.03108C125.929 9.50154 125.012 10.1659 124.245 10.9874C123.462 11.8299 122.844 12.815 122.427 13.8902C121.561 16.1736 121.561 18.6985 122.427 20.9819C122.844 22.0566 123.461 23.0411 124.245 23.8822C125.008 24.7082 125.926 25.3732 126.947 25.8386C128.888 26.7048 131.09 26.7689 133.078 26.0171C134.009 25.6552 134.886 25.1673 135.685 24.5669C135.982 24.3281 136.355 24.2064 136.734 24.2246C137.066 24.2489 137.377 24.3982 137.605 24.6427C137.854 24.9244 137.981 25.2937 137.96 25.6698C137.96 25.8692 137.919 26.0663 137.841 26.2494C137.758 26.4448 137.637 26.6219 137.486 26.7703C136.468 27.6001 135.319 28.2537 134.088 28.7046C132.852 29.1493 131.548 29.3728 130.236 29.3649Z" fill="#282623"/>
<path d="M148.111 29.1815C146.745 29.2016 145.401 28.8246 144.242 28.0957C143.098 27.3709 142.165 26.3543 141.538 25.149C140.861 23.8514 140.518 22.4036 140.54 20.9379C140.518 19.4568 140.89 17.9968 141.618 16.7098C142.314 15.4822 143.319 14.4609 144.531 13.7484C145.798 13.0363 147.225 12.6625 148.675 12.6625C150.126 12.6625 151.553 13.0363 152.82 13.7484C154.032 14.4614 155.036 15.4826 155.733 16.7098C156.462 17.9965 156.835 19.4566 156.813 20.9379H155.66C155.684 22.4029 155.344 23.8507 154.67 25.149C154.042 26.3543 153.109 27.3709 151.966 28.0957C150.81 28.8219 149.473 29.1988 148.111 29.1815ZM148.703 26.5037C149.65 26.5181 150.581 26.2639 151.39 25.7701C152.178 25.2865 152.821 24.598 153.252 23.7771C153.712 22.9024 153.946 21.9252 153.932 20.9355C153.948 19.9354 153.715 18.9472 153.252 18.0621C152.821 17.2412 152.178 16.5527 151.39 16.0691C150.577 15.5901 149.652 15.3377 148.709 15.3377C147.767 15.3377 146.842 15.5901 146.028 16.0691C145.233 16.5514 144.58 17.2396 144.137 18.0621C143.668 18.9455 143.432 19.936 143.453 20.9379C143.438 21.9295 143.677 22.9083 144.147 23.7795C144.589 24.6021 145.242 25.2902 146.038 25.7726C146.842 26.2603 147.765 26.5135 148.703 26.5037ZM155.32 29.091C155.121 29.0982 154.922 29.0639 154.736 28.9902C154.55 28.9166 154.381 28.8052 154.239 28.663C154.098 28.5208 153.987 28.3508 153.914 28.1636C153.84 27.9764 153.806 27.776 153.813 27.5748V23.0214L154.376 19.8644L156.83 20.9379V27.5748C156.837 27.776 156.803 27.9764 156.729 28.1636C156.656 28.3508 156.545 28.5208 156.404 28.663C156.262 28.8052 156.093 28.9166 155.907 28.9902C155.721 29.0639 155.522 29.0982 155.323 29.091H155.32Z" fill="#282623"/>
<path d="M162.794 29.0616C162.597 29.0752 162.399 29.0493 162.211 28.9855C162.024 28.9217 161.851 28.8213 161.702 28.6899C161.564 28.5411 161.459 28.3652 161.393 28.1732C161.326 27.9813 161.3 27.7775 161.316 27.5748V14.2692C161.294 14.0684 161.318 13.8653 161.384 13.6749C161.451 13.4845 161.559 13.3116 161.701 13.1689C161.843 13.0262 162.015 12.9174 162.204 12.8505C162.393 12.7836 162.595 12.7603 162.794 12.7824C162.995 12.7533 163.199 12.7717 163.391 12.8362C163.584 12.9006 163.758 13.0093 163.901 13.1536C164.045 13.2979 164.153 13.4739 164.217 13.6675C164.281 13.8612 164.299 14.0672 164.27 14.2692V27.5748C164.297 27.9764 164.164 28.3722 163.901 28.6753C163.753 28.8133 163.578 28.919 163.388 28.9855C163.197 29.052 162.995 29.0779 162.794 29.0616ZM162.765 18.8837C162.747 17.7549 163.05 16.6444 163.636 15.6827C164.215 14.7437 165.023 13.9699 165.984 13.4353C166.977 12.8789 168.097 12.5923 169.234 12.6038C170.417 12.6038 171.299 12.797 171.88 13.1834C172.461 13.5698 172.682 14.0312 172.542 14.5675C172.502 14.8128 172.382 15.0378 172.203 15.2082C172.04 15.3533 171.841 15.4506 171.627 15.4895C171.392 15.5292 171.15 15.5192 170.919 15.4601C169.802 15.2038 168.645 15.1838 167.52 15.4014C166.625 15.5621 165.798 15.9878 165.144 16.6241C164.854 16.9222 164.627 17.2763 164.477 17.6651C164.327 18.0538 164.256 18.4692 164.27 18.8862L162.765 18.8837Z" fill="#282623"/>
<path d="M182.087 29.1815C180.569 29.2104 179.069 28.8466 177.73 28.1251C176.487 27.4485 175.453 26.4388 174.744 25.2077C174.01 23.908 173.638 22.4329 173.666 20.9379C173.635 19.4398 173.986 17.9587 174.686 16.6364C175.341 15.419 176.317 14.4076 177.507 13.7141C178.763 12.9964 180.189 12.6315 181.633 12.6577C183.022 12.6185 184.394 12.9745 185.592 13.6848C186.688 14.3617 187.565 15.3435 188.119 16.5117C188.721 17.812 189.02 19.2343 188.99 20.669C188.995 20.8434 188.963 21.0169 188.897 21.1783C188.831 21.3396 188.732 21.4852 188.607 21.6056C188.478 21.7295 188.325 21.8264 188.159 21.8906C187.992 21.9548 187.814 21.9851 187.636 21.9797H175.737V19.5978H187.553L186.34 20.4317C186.336 19.5108 186.135 18.6014 185.75 17.7662C185.395 16.9781 184.814 16.3149 184.083 15.8617C183.351 15.4086 182.501 15.1861 181.643 15.223C180.633 15.1902 179.635 15.4444 178.762 15.9566C177.972 16.4442 177.341 17.1529 176.946 17.9961C176.52 18.914 176.308 19.9176 176.324 20.9306C176.307 21.9516 176.563 22.9586 177.065 23.8456C177.55 24.694 178.255 25.3938 179.104 25.8704C180.017 26.3751 181.046 26.6282 182.087 26.604C182.727 26.5992 183.362 26.4833 183.963 26.2617C184.516 26.0776 185.039 25.8122 185.515 25.4742C185.794 25.26 186.134 25.1402 186.485 25.1319C186.814 25.1158 187.137 25.2279 187.386 25.4449C187.536 25.5626 187.661 25.7101 187.753 25.8784C187.844 26.0467 187.9 26.232 187.918 26.4231C187.925 26.6049 187.885 26.7855 187.802 26.9474C187.72 27.1094 187.597 27.2471 187.447 27.3474C186.695 27.9257 185.85 28.3683 184.949 28.6557C184.03 28.9874 183.063 29.1651 182.087 29.1815Z" fill="#282623"/>
</g>
<defs>
<clipPath id="clip0">
<rect width="189" height="40" fill="white"/>
</clipPath>
</defs>
</svg>
