<svg width="901" height="560" viewBox="0 0 901 560" fill="none" xmlns="http://www.w3.org/2000/svg">
<path fill-rule="evenodd" clip-rule="evenodd" d="M407.342 169.485C311.514 205.695 197.34 259.594 148.542 325.233C99.6822 390.956 143.849 437.743 177.995 477.988C204.197 508.87 281.375 499.649 317.452 524.309C364.693 556.6 348.887 563.323 439.931 557.901C529.167 544.055 558.267 536.307 659.91 487.387C756.15 436.717 804.075 398.482 856.087 347.693C912.379 292.724 931.057 240.895 941.419 189.352C961.377 121.122 1040.87 12.4003 959.732 1.06526C871.911 -11.2033 739.896 110.161 625.097 145.162C544.725 169.667 487.979 139.016 407.342 169.485Z" fill="#FFC876"/>
<path fill-rule="evenodd" clip-rule="evenodd" d="M435.427 161.73C350.207 189.885 249.191 233.749 208.07 293.367C166.896 353.061 209.231 400.98 242.157 441.933C267.424 473.359 337.018 469.815 370.946 495.949C415.373 530.173 401.353 535.537 483.714 536.59C564.029 529.436 590.064 524.002 679.947 484.054C764.844 442.054 806.494 408.666 851.248 363.516C899.684 314.649 914.138 266.211 921.058 217.476C935.883 153.391 1002.78 54.5511 928.606 38.1035C848.317 20.3013 734.361 127.662 631.868 153.354C560.11 171.342 507.137 138.039 435.427 161.73Z" fill="#FFA318"/>
</svg>
