<svg width="26" height="26" viewBox="0 0 26 26" fill="none" xmlns="http://www.w3.org/2000/svg">
<path d="M22.1927 3.80778C19.7372 1.35225 16.4725 0 13 0C9.52739 0 6.26271 1.35225 3.80723 3.80778C1.72032 5.89469 0.395391 8.65673 0.0764846 11.5851C-0.225004 14.3534 0.376653 17.1713 1.77258 19.5599L0.417786 24.6157C0.344762 24.8881 0.422661 25.1789 0.62218 25.3783C0.821598 25.5778 1.11242 25.6557 1.38471 25.5827L6.4406 24.228C8.4264 25.3884 10.7089 26 13.0129 26C13.4803 26 13.9485 25.9749 14.4153 25.924C17.3437 25.6051 20.1057 24.2802 22.1927 22.1932C24.6482 19.7378 26.0005 16.473 26.0005 13.0005C26.0005 9.52798 24.6482 6.26326 22.1927 3.80778ZM19.8366 17.7296C19.211 18.9369 18.0385 19.73 16.5349 19.963C16.2217 20.0116 15.9012 20.0353 15.5759 20.0353C13.3574 20.0353 10.9138 18.9284 8.99291 17.0076C6.79048 14.8051 5.65801 11.9152 6.03749 9.46552C6.27043 7.96199 7.06358 6.7894 8.27096 6.16393C8.95955 5.80714 9.79419 5.93927 10.3479 6.49294L11.7258 7.87084C12.1016 8.24662 12.29 8.76581 12.2425 9.29525C12.1951 9.8247 11.9174 10.3022 11.4807 10.6053L10.7888 11.0853C10.9049 11.7371 11.234 13.0004 12.117 13.8835C12.9998 14.7663 14.2625 15.0954 14.9152 15.2116L15.3952 14.5199C15.6982 14.0833 16.1756 13.8055 16.7051 13.7581C17.2342 13.7105 17.7537 13.8989 18.1296 14.2748L19.5075 15.6527C20.0611 16.2062 20.1934 17.0409 19.8366 17.7296Z" fill="#FFA318"/>
</svg>
