<svg id="Camada_1" data-name="Camada 1" xmlns="http://www.w3.org/2000/svg" viewBox="0 0 173.06 163.57"><defs><style>.cls-1{fill:#ffa318;}</style></defs><ellipse class="cls-1" cx="50.66" cy="54.63" rx="13.72" ry="18.62" transform="translate(-18.36 8.05) rotate(-15.71)"/><ellipse class="cls-1" cx="108.23" cy="26.27" rx="18.67" ry="13.76" transform="translate(59.19 121.05) rotate(-80.61)"/><ellipse class="cls-1" cx="74.74" cy="26.27" rx="13.76" ry="18.67" transform="translate(-8.75 4.84) rotate(-9.39)"/><ellipse class="cls-1" cx="132.96" cy="53.49" rx="18.67" ry="13.76" transform="translate(39.73 159.07) rotate(-74.15)"/><path class="cls-1" d="M118,75.75c-4.23-5-7.78-9.2-12.07-14.16-2.23-2.63-5.11-5.26-8.51-6.43a9.79,9.79,0,0,0-1.61-.43,25.27,25.27,0,0,0-3.79-.2,20.65,20.65,0,0,0-3.85.25,9.68,9.68,0,0,0-1.6.43C83.14,56.38,80.32,59,78,61.64c-4.23,5-7.78,9.19-12.06,14.16-6.38,6.39-14.21,13.39-12.75,23.3,1.41,5,4.12,7.24,10.43,11.9,4.8,3.3,15.84,8.72,27.91,8.72h.88c12.06,0,23.39-6.89,27-8.87,6.69-3.69,9.88-6.83,11.29-11.75C132.19,89.19,124.37,82.12,118,75.75Z" transform="translate(-5.46 -7.71)"/><path class="cls-1" d="M92.13,171.28A148.13,148.13,0,0,1,53.37,154c-33.19-21-43-47.3-45.82-57.32C4.83,87.1,4.86,76.49,7.11,71.44a11.39,11.39,0,0,1,2.43-3.25c1.83,24,17.43,42.51,38.05,55l.13.06c-4.42-8-7.83-14.9-7.4-24,.08-1.82.43-3.83,2-3.72a29.7,29.7,0,0,0,4.33,13.08c5.33,8.58,14.56,13.8,23.87,17.58,5.81,2.36,18.27,5.29,21.49,10.67h0c3.22-5.38,15.68-8.31,21.5-10.66,9.3-3.77,18.54-9,23.83-17.58a29.7,29.7,0,0,0,4.33-13.08c1.61-.1,2,1.9,2,3.72.42,9.15-3,16-7.4,24l.1-.07c20.63-12.53,36.25-31,38.06-55.06a11.4,11.4,0,0,1,2.45,3.28c2.25,5,2.28,15.65-.44,25.24-2.84,10-12.62,36.3-45.82,57.32a148.44,148.44,0,0,1-38.79,17.27Z" transform="translate(-5.46 -7.71)"/></svg>