<svg width="45" height="45" viewBox="0 0 45 45" fill="none" xmlns="http://www.w3.org/2000/svg">
<path d="M22.4211 19.7743C19.4959 19.7743 17.3062 22.3919 17.3062 25.2233C17.3062 28.191 19.6009 30.4964 22.4211 30.4964C25.2379 30.4964 27.6943 28.0191 27.6943 25.0475C27.6942 22.2213 25.3514 19.7743 22.4211 19.7743Z" fill="#FFA318"/>
<path d="M41.6997 28.5672C40.2195 27.7129 34.9485 25.5399 30.2462 24.2115C30.276 24.49 30.3307 24.7613 30.3307 25.0475C30.3307 28.2669 28.391 31.2075 25.6247 32.4409C26.6036 33.3939 27.6526 34.3501 28.7137 35.2604C25.953 36.9754 22.6627 37.5222 19.5538 36.6964C18.8521 36.5162 18.1299 36.9294 17.9419 37.6336C17.7553 38.3366 18.1749 39.0588 18.8791 39.2455C22.9443 40.3227 27.1424 39.5889 30.7924 36.9903C31.567 37.6134 32.3059 38.1922 32.954 38.6748C27.8574 42.6257 20.8448 43.4602 15.0441 40.6203C14.3901 40.2972 13.6009 40.5701 13.2804 41.2228C12.9599 41.8768 13.2289 42.666 13.8829 42.9865C20.7841 46.3718 29.1054 45.5121 35.2702 40.2262C38.5714 42.0147 42.4068 40.7047 44.1137 37.7469C45.9301 34.5994 44.8474 30.385 41.6997 28.5672Z" fill="#FFA318"/>
<path d="M42.1503 23.6958C41.6189 15.8392 36.3684 9.06216 28.9982 6.45022C28.9207 2.88247 26.1651 0 22.5793 0C18.9449 0 15.9878 2.95709 15.9878 6.59146C15.9878 8.29707 16.7347 13.9455 17.9277 18.6818C19.2367 17.7226 20.6774 17.1377 22.421 17.1377C24.1666 17.1377 25.7668 17.7239 27.0764 18.6851C27.4132 17.3497 27.7182 15.9505 27.976 14.5759C30.8488 16.1045 33.0058 18.7577 33.8711 21.932C34.0664 22.6502 34.8079 23.0469 35.4894 22.8576C36.1923 22.6657 36.6068 21.9423 36.4149 21.2393C35.2822 17.0808 32.3298 13.665 28.4357 11.8792C28.5868 10.9028 28.712 9.9887 28.8053 9.19057C34.8292 11.6227 39.0756 17.3118 39.5188 23.8734C39.5664 24.57 40.1458 25.1028 40.8332 25.1028C40.8628 25.1028 40.8937 25.1015 40.9233 25.1003C41.6496 25.0513 42.1993 24.4219 42.1503 23.6958Z" fill="#FFA318"/>
<path d="M14.6694 25.2232C14.6694 24.9387 14.724 24.6691 14.7534 24.3921C13.4299 24.7649 12.0795 25.1834 10.7507 25.6507C10.6233 22.1066 11.9539 18.9208 14.1583 16.6974C14.6707 16.1798 14.6682 15.3456 14.1506 14.8332C13.6356 14.3233 12.8014 14.3233 12.2864 14.8409C9.38709 17.7651 7.75294 21.9284 8.19441 26.5928C7.25469 26.9575 6.37754 27.3115 5.62879 27.6351C4.67193 20.8378 7.75171 14.3705 13.0137 10.8242C13.6175 10.4174 13.7772 9.59869 13.3704 8.99488C12.961 8.38975 12.1422 8.23137 11.541 8.63822C5.30421 12.8408 1.64919 20.6288 3.16996 28.8439C0.113911 30.713 -0.900613 34.6462 0.886559 37.7469C0.899391 37.7701 0.913629 37.792 0.926461 37.8151C2.74993 40.8875 6.69429 41.94 9.80044 40.2111C9.83138 40.1944 9.86091 40.1762 9.89185 40.1595C9.89185 40.1595 9.89317 40.1582 9.8944 40.1582C11.3747 39.3024 15.8729 35.8378 19.3697 32.4379C16.6064 31.2034 14.6694 28.4404 14.6694 25.2232Z" fill="#FFA318"/>
</svg>
